<!-- Generated by IcoMoon.io -->
<svg version="1.1" xmlns="http://www.w3.org/2000/svg" width="16" height="16" viewBox="0 0 16 16">
<title>credit-card</title>
<path d="M2 2c-0.552 0-1.053 0.225-1.414 0.586s-0.586 0.862-0.586 1.414v8c0 0.552 0.225 1.053 0.586 1.414s0.862 0.586 1.414 0.586h12c0.552 0 1.053-0.225 1.414-0.586s0.586-0.862 0.586-1.414v-8c0-0.552-0.225-1.053-0.586-1.414s-0.862-0.586-1.414-0.586zM14.667 6h-13.333v-2c0-0.184 0.074-0.35 0.195-0.471s0.287-0.195 0.471-0.195h12c0.184 0 0.35 0.074 0.471 0.195s0.195 0.287 0.195 0.471zM1.333 7.333h13.333v4.667c0 0.184-0.074 0.35-0.195 0.471s-0.287 0.195-0.471 0.195h-12c-0.184 0-0.35-0.074-0.471-0.195s-0.195-0.287-0.195-0.471z"></path>
</svg>
