<!-- Generated by IcoMoon.io -->
<svg version="1.1" xmlns="http://www.w3.org/2000/svg" width="16" height="16" viewBox="0 0 16 16">
<title>fast-forward</title>
<path d="M9.333 11.303v-6.607l4.247 3.303zM2 11.303v-6.607l4.247 3.303zM1.743 13.193l6-4.667c0.167-0.13 0.255-0.324 0.257-0.52v4.661c0 0.368 0.299 0.667 0.667 0.667 0.155 0 0.297-0.053 0.409-0.141l6-4.667c0.291-0.226 0.343-0.645 0.117-0.935-0.036-0.046-0.077-0.086-0.117-0.117l-6-4.667c-0.291-0.226-0.709-0.174-0.935 0.117-0.095 0.123-0.141 0.267-0.141 0.409v4.66c-0.001-0.141-0.047-0.283-0.141-0.403-0.036-0.046-0.077-0.086-0.117-0.117l-6-4.667c-0.291-0.226-0.709-0.174-0.935 0.117-0.095 0.123-0.141 0.267-0.141 0.409v9.333c0 0.368 0.299 0.667 0.667 0.667 0.155 0 0.297-0.053 0.409-0.141z"></path>
</svg>
