<!-- Generated by IcoMoon.io -->
<svg version="1.1" xmlns="http://www.w3.org/2000/svg" width="16" height="16" viewBox="0 0 16 16">
<title>maximize-2</title>
<path d="M12.391 2.667l-3.529 3.529c-0.261 0.261-0.261 0.683 0 0.943s0.683 0.261 0.943 0l3.529-3.529v2.391c0 0.368 0.299 0.667 0.667 0.667s0.667-0.299 0.667-0.667v-4c0-0.091-0.018-0.177-0.051-0.255s-0.081-0.152-0.144-0.215c-0.001-0.001-0.001-0.001-0.001-0.001-0.061-0.061-0.135-0.111-0.215-0.144-0.079-0.033-0.165-0.051-0.255-0.051h-4c-0.368 0-0.667 0.299-0.667 0.667s0.299 0.667 0.667 0.667zM3.609 13.333l3.529-3.529c0.261-0.261 0.261-0.683 0-0.943s-0.683-0.261-0.943 0l-3.529 3.529v-2.391c0-0.368-0.299-0.667-0.667-0.667s-0.667 0.299-0.667 0.667v4c0 0.368 0.299 0.667 0.667 0.667h4c0.368 0 0.667-0.299 0.667-0.667s-0.299-0.667-0.667-0.667z"></path>
</svg>
