<!-- Generated by IcoMoon.io -->
<svg version="1.1" xmlns="http://www.w3.org/2000/svg" width="16" height="16" viewBox="0 0 16 16">
<title>music</title>
<path d="M5.333 12c0 0.369-0.149 0.701-0.391 0.943s-0.574 0.391-0.943 0.391-0.701-0.149-0.943-0.391-0.391-0.574-0.391-0.943 0.149-0.701 0.391-0.943 0.574-0.391 0.943-0.391 0.701 0.149 0.943 0.391 0.391 0.574 0.391 0.943zM14.667 10.667v-8.667c0-0.033-0.003-0.071-0.009-0.109-0.061-0.363-0.404-0.609-0.767-0.548l-8 1.333c-0.317 0.054-0.557 0.328-0.557 0.657v6.357c-0.392-0.227-0.848-0.357-1.333-0.357-0.736 0-1.404 0.299-1.885 0.781s-0.781 1.149-0.781 1.885 0.299 1.404 0.781 1.885 1.149 0.781 1.885 0.781 1.404-0.299 1.885-0.781 0.781-1.149 0.781-1.885v-8.102l6.667-1.111v5.57c-0.392-0.227-0.848-0.357-1.333-0.357-0.736 0-1.404 0.299-1.885 0.781s-0.781 1.149-0.781 1.885 0.299 1.404 0.781 1.885 1.149 0.781 1.885 0.781 1.404-0.299 1.885-0.781 0.781-1.149 0.781-1.885zM13.333 10.667c0 0.369-0.149 0.701-0.391 0.943s-0.574 0.391-0.943 0.391-0.701-0.149-0.943-0.391-0.391-0.574-0.391-0.943 0.149-0.701 0.391-0.943 0.574-0.391 0.943-0.391 0.701 0.149 0.943 0.391 0.391 0.574 0.391 0.943z"></path>
</svg>
