<!-- Generated by IcoMoon.io -->
<svg version="1.1" xmlns="http://www.w3.org/2000/svg" width="16" height="16" viewBox="0 0 16 16">
<title>pause-circle</title>
<path d="M15.333 8c0-2.025-0.821-3.859-2.148-5.185s-3.161-2.148-5.185-2.148-3.859 0.821-5.185 2.148-2.148 3.161-2.148 5.185 0.821 3.859 2.148 5.185 3.161 2.148 5.185 2.148 3.859-0.821 5.185-2.148 2.148-3.161 2.148-5.185zM14 8c0 1.657-0.671 3.156-1.757 4.243s-2.585 1.757-4.243 1.757-3.156-0.671-4.243-1.757-1.757-2.585-1.757-4.243 0.671-3.156 1.757-4.243 2.585-1.757 4.243-1.757 3.156 0.671 4.243 1.757 1.757 2.585 1.757 4.243zM7.333 10v-4c0-0.368-0.299-0.667-0.667-0.667s-0.667 0.299-0.667 0.667v4c0 0.368 0.299 0.667 0.667 0.667s0.667-0.299 0.667-0.667zM10 10v-4c0-0.368-0.299-0.667-0.667-0.667s-0.667 0.299-0.667 0.667v4c0 0.368 0.299 0.667 0.667 0.667s0.667-0.299 0.667-0.667z"></path>
</svg>
