<!-- Generated by IcoMoon.io -->
<svg version="1.1" xmlns="http://www.w3.org/2000/svg" width="16" height="16" viewBox="0 0 16 16">
<title>power</title>
<path d="M11.769 4.898c1.041 1.042 1.562 2.405 1.561 3.771s-0.521 2.729-1.563 3.771c-1.041 1.041-2.404 1.561-3.769 1.561-1.368 0-2.732-0.521-3.773-1.563s-1.561-2.405-1.561-3.771 0.521-2.729 1.561-3.771c0.26-0.261 0.26-0.683 0-0.943s-0.683-0.26-0.943 0c-1.301 1.301-1.952 3.009-1.952 4.713s0.651 3.412 1.952 4.713c1.301 1.302 3.009 1.953 4.714 1.953s3.413-0.651 4.715-1.952c1.302-1.301 1.953-3.009 1.953-4.713-0.001-1.707-0.651-3.413-1.952-4.715-0.26-0.261-0.683-0.261-0.943 0s-0.261 0.683 0 0.943zM7.333 1.333v6.667c0 0.368 0.299 0.667 0.667 0.667s0.667-0.299 0.667-0.667v-6.667c0-0.368-0.299-0.667-0.667-0.667s-0.667 0.299-0.667 0.667z"></path>
</svg>
