<!-- Generated by IcoMoon.io -->
<svg version="1.1" xmlns="http://www.w3.org/2000/svg" width="12" height="12" viewBox="0 0 12 12">
<title>power</title>
<path d="M8.827 3.673c0.781 0.782 1.171 1.804 1.171 2.828s-0.391 2.047-1.172 2.828c-0.781 0.781-1.803 1.171-2.827 1.171-1.026 0-2.049-0.391-2.83-1.172s-1.171-1.804-1.171-2.828 0.391-2.047 1.171-2.828c0.195-0.196 0.195-0.512 0-0.707s-0.512-0.195-0.707 0c-0.976 0.976-1.464 2.257-1.464 3.535s0.488 2.559 1.464 3.535c0.976 0.977 2.257 1.465 3.536 1.465s2.56-0.488 3.536-1.464c0.976-0.976 1.465-2.257 1.465-3.535-0.001-1.28-0.488-2.56-1.464-3.536-0.195-0.196-0.512-0.196-0.707 0s-0.196 0.512 0 0.707zM5.5 1v5c0 0.276 0.224 0.5 0.5 0.5s0.5-0.224 0.5-0.5v-5c0-0.276-0.224-0.5-0.5-0.5s-0.5 0.224-0.5 0.5z"></path>
</svg>
